<mxfile host="Electron" agent="Mozilla/5.0 (Windows NT 10.0; Win64; x64) AppleWebKit/537.36 (KHTML, like Gecko) draw.io/26.0.9 Chrome/128.0.6613.186 Electron/32.2.5 Safari/537.36" version="26.0.9">
  <diagram name="Page-1" id="17d97VE0nBbMkQRY5-0g">
    <mxGraphModel dx="794" dy="557" grid="1" gridSize="10" guides="1" tooltips="1" connect="1" arrows="1" fold="1" page="1" pageScale="1" pageWidth="850" pageHeight="1100" math="0" shadow="0">
      <root>
        <mxCell id="0" />
        <mxCell id="1" parent="0" />
        <mxCell id="exR9LLXjE46vzkfQefoG-8" value="Integration Model" style="text;html=1;align=center;verticalAlign=middle;whiteSpace=wrap;rounded=0;fontStyle=1;fontSize=40;" parent="1" vertex="1">
          <mxGeometry x="60" y="30" width="370" height="60" as="geometry" />
        </mxCell>
        <mxCell id="exR9LLXjE46vzkfQefoG-10" value="(How tables are Related)" style="text;html=1;align=center;verticalAlign=middle;resizable=0;points=[];autosize=1;strokeColor=none;fillColor=none;" parent="1" vertex="1">
          <mxGeometry x="400" y="50" width="160" height="30" as="geometry" />
        </mxCell>
        <mxCell id="exR9LLXjE46vzkfQefoG-11" value="crm_cust_info" style="swimlane;fontStyle=0;childLayout=stackLayout;horizontal=1;startSize=30;horizontalStack=0;resizeParent=1;resizeParentMax=0;resizeLast=0;collapsible=1;marginBottom=0;whiteSpace=wrap;html=1;rounded=1;fillColor=#d5e8d4;strokeColor=#82b366;" parent="1" vertex="1">
          <mxGeometry x="200" y="360" width="140" height="90" as="geometry" />
        </mxCell>
        <mxCell id="exR9LLXjE46vzkfQefoG-12" value="cst_id" style="text;strokeColor=none;fillColor=none;align=left;verticalAlign=middle;spacingLeft=4;spacingRight=4;overflow=hidden;points=[[0,0.5],[1,0.5]];portConstraint=eastwest;rotatable=0;whiteSpace=wrap;html=1;" parent="exR9LLXjE46vzkfQefoG-11" vertex="1">
          <mxGeometry y="30" width="140" height="30" as="geometry" />
        </mxCell>
        <mxCell id="exR9LLXjE46vzkfQefoG-30" value="cst_key" style="text;strokeColor=none;fillColor=none;align=left;verticalAlign=middle;spacingLeft=4;spacingRight=4;overflow=hidden;points=[[0,0.5],[1,0.5]];portConstraint=eastwest;rotatable=0;whiteSpace=wrap;html=1;" parent="exR9LLXjE46vzkfQefoG-11" vertex="1">
          <mxGeometry y="60" width="140" height="30" as="geometry" />
        </mxCell>
        <mxCell id="exR9LLXjE46vzkfQefoG-15" value="customer Infomation" style="text;html=1;align=center;verticalAlign=middle;resizable=0;points=[];autosize=1;strokeColor=none;fillColor=none;" parent="1" vertex="1">
          <mxGeometry x="210" y="330" width="130" height="30" as="geometry" />
        </mxCell>
        <mxCell id="exR9LLXjE46vzkfQefoG-17" value="crm_prd_info" style="swimlane;fontStyle=0;childLayout=stackLayout;horizontal=1;startSize=30;horizontalStack=0;resizeParent=1;resizeParentMax=0;resizeLast=0;collapsible=1;marginBottom=0;whiteSpace=wrap;html=1;rounded=1;fillColor=#d5e8d4;strokeColor=#82b366;" parent="1" vertex="1">
          <mxGeometry x="205" y="200" width="140" height="60" as="geometry" />
        </mxCell>
        <mxCell id="exR9LLXjE46vzkfQefoG-18" value="prd_key" style="text;strokeColor=none;fillColor=none;align=left;verticalAlign=middle;spacingLeft=4;spacingRight=4;overflow=hidden;points=[[0,0.5],[1,0.5]];portConstraint=eastwest;rotatable=0;whiteSpace=wrap;html=1;" parent="exR9LLXjE46vzkfQefoG-17" vertex="1">
          <mxGeometry y="30" width="140" height="30" as="geometry" />
        </mxCell>
        <mxCell id="exR9LLXjE46vzkfQefoG-19" value="current &amp;amp; History Prod Info" style="text;html=1;align=center;verticalAlign=middle;resizable=0;points=[];autosize=1;strokeColor=none;fillColor=none;" parent="1" vertex="1">
          <mxGeometry x="195" y="170" width="160" height="30" as="geometry" />
        </mxCell>
        <mxCell id="exR9LLXjE46vzkfQefoG-20" value="crm_sales_details" style="swimlane;fontStyle=0;childLayout=stackLayout;horizontal=1;startSize=30;horizontalStack=0;resizeParent=1;resizeParentMax=0;resizeLast=0;collapsible=1;marginBottom=0;whiteSpace=wrap;html=1;rounded=1;fillColor=#d5e8d4;strokeColor=#82b366;" parent="1" vertex="1">
          <mxGeometry x="10" y="260" width="140" height="90" as="geometry" />
        </mxCell>
        <mxCell id="exR9LLXjE46vzkfQefoG-21" value="prd_key" style="text;strokeColor=none;fillColor=none;align=left;verticalAlign=middle;spacingLeft=4;spacingRight=4;overflow=hidden;points=[[0,0.5],[1,0.5]];portConstraint=eastwest;rotatable=0;whiteSpace=wrap;html=1;" parent="exR9LLXjE46vzkfQefoG-20" vertex="1">
          <mxGeometry y="30" width="140" height="30" as="geometry" />
        </mxCell>
        <mxCell id="exR9LLXjE46vzkfQefoG-25" value="cst_id" style="text;strokeColor=none;fillColor=none;align=left;verticalAlign=middle;spacingLeft=4;spacingRight=4;overflow=hidden;points=[[0,0.5],[1,0.5]];portConstraint=eastwest;rotatable=0;whiteSpace=wrap;html=1;" parent="exR9LLXjE46vzkfQefoG-20" vertex="1">
          <mxGeometry y="60" width="140" height="30" as="geometry" />
        </mxCell>
        <mxCell id="exR9LLXjE46vzkfQefoG-22" value="Transactional Records&lt;div&gt;&amp;nbsp;about Sales &amp;amp; Orders&lt;/div&gt;" style="text;html=1;align=center;verticalAlign=middle;resizable=0;points=[];autosize=1;strokeColor=none;fillColor=none;" parent="1" vertex="1">
          <mxGeometry x="10" y="220" width="140" height="40" as="geometry" />
        </mxCell>
        <mxCell id="exR9LLXjE46vzkfQefoG-26" style="edgeStyle=orthogonalEdgeStyle;rounded=0;orthogonalLoop=1;jettySize=auto;html=1;entryX=0;entryY=0.5;entryDx=0;entryDy=0;" parent="1" source="exR9LLXjE46vzkfQefoG-21" target="exR9LLXjE46vzkfQefoG-18" edge="1">
          <mxGeometry relative="1" as="geometry" />
        </mxCell>
        <mxCell id="exR9LLXjE46vzkfQefoG-27" style="edgeStyle=orthogonalEdgeStyle;rounded=0;orthogonalLoop=1;jettySize=auto;html=1;entryX=0.024;entryY=0.859;entryDx=0;entryDy=0;entryPerimeter=0;" parent="1" source="exR9LLXjE46vzkfQefoG-25" target="exR9LLXjE46vzkfQefoG-12" edge="1">
          <mxGeometry relative="1" as="geometry" />
        </mxCell>
        <mxCell id="exR9LLXjE46vzkfQefoG-28" value="erp_cust_az12" style="swimlane;fontStyle=0;childLayout=stackLayout;horizontal=1;startSize=30;horizontalStack=0;resizeParent=1;resizeParentMax=0;resizeLast=0;collapsible=1;marginBottom=0;whiteSpace=wrap;html=1;rounded=1;fillColor=#dae8fc;strokeColor=#6c8ebf;" parent="1" vertex="1">
          <mxGeometry x="490" y="315" width="140" height="80" as="geometry" />
        </mxCell>
        <mxCell id="exR9LLXjE46vzkfQefoG-29" value="cid" style="text;strokeColor=none;fillColor=none;align=left;verticalAlign=middle;spacingLeft=4;spacingRight=4;overflow=hidden;points=[[0,0.5],[1,0.5]];portConstraint=eastwest;rotatable=0;whiteSpace=wrap;html=1;" parent="exR9LLXjE46vzkfQefoG-28" vertex="1">
          <mxGeometry y="30" width="140" height="30" as="geometry" />
        </mxCell>
        <mxCell id="w0m_D-ADQ-zKJwWNaDBM-9" value="Customer" style="rounded=1;whiteSpace=wrap;html=1;fillColor=#fad7ac;strokeColor=#b46504;" vertex="1" parent="exR9LLXjE46vzkfQefoG-28">
          <mxGeometry y="60" width="140" height="20" as="geometry" />
        </mxCell>
        <mxCell id="exR9LLXjE46vzkfQefoG-31" value="Extra customer Info(Birthdate)" style="text;html=1;align=center;verticalAlign=middle;resizable=0;points=[];autosize=1;strokeColor=none;fillColor=none;" parent="1" vertex="1">
          <mxGeometry x="480" y="290" width="180" height="30" as="geometry" />
        </mxCell>
        <mxCell id="exR9LLXjE46vzkfQefoG-33" value="erp_loc_a101" style="swimlane;fontStyle=0;childLayout=stackLayout;horizontal=1;startSize=30;horizontalStack=0;resizeParent=1;resizeParentMax=0;resizeLast=0;collapsible=1;marginBottom=0;whiteSpace=wrap;html=1;rounded=1;fillColor=#dae8fc;strokeColor=#6c8ebf;" parent="1" vertex="1">
          <mxGeometry x="495" y="420" width="140" height="60" as="geometry" />
        </mxCell>
        <mxCell id="exR9LLXjE46vzkfQefoG-34" value="cst_id" style="text;strokeColor=none;fillColor=none;align=left;verticalAlign=middle;spacingLeft=4;spacingRight=4;overflow=hidden;points=[[0,0.5],[1,0.5]];portConstraint=eastwest;rotatable=0;whiteSpace=wrap;html=1;" parent="exR9LLXjE46vzkfQefoG-33" vertex="1">
          <mxGeometry y="30" width="140" height="30" as="geometry" />
        </mxCell>
        <mxCell id="exR9LLXjE46vzkfQefoG-37" style="edgeStyle=orthogonalEdgeStyle;rounded=0;orthogonalLoop=1;jettySize=auto;html=1;entryX=1;entryY=0.5;entryDx=0;entryDy=0;" parent="1" source="exR9LLXjE46vzkfQefoG-34" target="exR9LLXjE46vzkfQefoG-12" edge="1">
          <mxGeometry relative="1" as="geometry" />
        </mxCell>
        <mxCell id="exR9LLXjE46vzkfQefoG-44" value="rep_px_cat_g1v2" style="swimlane;fontStyle=0;childLayout=stackLayout;horizontal=1;startSize=30;horizontalStack=0;resizeParent=1;resizeParentMax=0;resizeLast=0;collapsible=1;marginBottom=0;whiteSpace=wrap;html=1;rounded=1;fillColor=#dae8fc;strokeColor=#6c8ebf;" parent="1" vertex="1">
          <mxGeometry x="490" y="200" width="140" height="60" as="geometry" />
        </mxCell>
        <mxCell id="exR9LLXjE46vzkfQefoG-45" value="id" style="text;strokeColor=none;fillColor=none;align=left;verticalAlign=middle;spacingLeft=4;spacingRight=4;overflow=hidden;points=[[0,0.5],[1,0.5]];portConstraint=eastwest;rotatable=0;whiteSpace=wrap;html=1;" parent="exR9LLXjE46vzkfQefoG-44" vertex="1">
          <mxGeometry y="30" width="140" height="30" as="geometry" />
        </mxCell>
        <mxCell id="exR9LLXjE46vzkfQefoG-36" value="Location of Customers(Country)" style="text;html=1;align=center;verticalAlign=middle;resizable=0;points=[];autosize=1;strokeColor=none;fillColor=none;" parent="1" vertex="1">
          <mxGeometry x="510" y="390" width="140" height="30" as="geometry" />
        </mxCell>
        <mxCell id="exR9LLXjE46vzkfQefoG-47" value="Product Categories" style="text;html=1;align=center;verticalAlign=middle;resizable=0;points=[];autosize=1;strokeColor=none;fillColor=none;" parent="1" vertex="1">
          <mxGeometry x="495" y="170" width="130" height="30" as="geometry" />
        </mxCell>
        <mxCell id="exR9LLXjE46vzkfQefoG-48" style="edgeStyle=orthogonalEdgeStyle;rounded=0;orthogonalLoop=1;jettySize=auto;html=1;entryX=1;entryY=0.5;entryDx=0;entryDy=0;" parent="1" source="exR9LLXjE46vzkfQefoG-45" target="exR9LLXjE46vzkfQefoG-18" edge="1">
          <mxGeometry relative="1" as="geometry" />
        </mxCell>
        <mxCell id="exR9LLXjE46vzkfQefoG-49" value="" style="rounded=1;whiteSpace=wrap;html=1;gradientColor=default;fillColor=none;" parent="1" vertex="1">
          <mxGeometry y="130" width="380" height="370" as="geometry" />
        </mxCell>
        <mxCell id="exR9LLXjE46vzkfQefoG-50" value="CRM" style="rounded=1;whiteSpace=wrap;html=1;fontStyle=1;fontSize=20;fillColor=#d5e8d4;strokeColor=#82b366;" parent="1" vertex="1">
          <mxGeometry x="110" y="110" width="110" height="40" as="geometry" />
        </mxCell>
        <mxCell id="exR9LLXjE46vzkfQefoG-51" value="" style="rounded=1;whiteSpace=wrap;html=1;gradientColor=default;fillColor=none;" parent="1" vertex="1">
          <mxGeometry x="420" y="140" width="300" height="370" as="geometry" />
        </mxCell>
        <mxCell id="exR9LLXjE46vzkfQefoG-52" value="ERP" style="rounded=1;whiteSpace=wrap;html=1;fontStyle=1;fontSize=20;fillColor=#dae8fc;strokeColor=#6c8ebf;" parent="1" vertex="1">
          <mxGeometry x="505" y="120" width="110" height="40" as="geometry" />
        </mxCell>
        <mxCell id="w0m_D-ADQ-zKJwWNaDBM-3" style="edgeStyle=orthogonalEdgeStyle;rounded=0;orthogonalLoop=1;jettySize=auto;html=1;entryX=0.895;entryY=0.757;entryDx=0;entryDy=0;entryPerimeter=0;" edge="1" parent="1" source="exR9LLXjE46vzkfQefoG-29" target="exR9LLXjE46vzkfQefoG-49">
          <mxGeometry relative="1" as="geometry" />
        </mxCell>
        <mxCell id="w0m_D-ADQ-zKJwWNaDBM-5" value="Product" style="rounded=1;whiteSpace=wrap;html=1;fillColor=#fff2cc;strokeColor=#d6b656;gradientColor=#ffd966;" vertex="1" parent="1">
          <mxGeometry x="215" y="260" width="120" height="20" as="geometry" />
        </mxCell>
        <mxCell id="w0m_D-ADQ-zKJwWNaDBM-6" value="Product" style="rounded=1;whiteSpace=wrap;html=1;fillColor=#fff2cc;gradientColor=#ffd966;strokeColor=#d6b656;" vertex="1" parent="1">
          <mxGeometry x="500" y="260" width="120" height="20" as="geometry" />
        </mxCell>
        <mxCell id="w0m_D-ADQ-zKJwWNaDBM-7" value="Sales" style="rounded=1;whiteSpace=wrap;html=1;fillColor=#b0e3e6;strokeColor=#0e8088;" vertex="1" parent="1">
          <mxGeometry x="20" y="350" width="120" height="20" as="geometry" />
        </mxCell>
        <mxCell id="w0m_D-ADQ-zKJwWNaDBM-8" value="Customer" style="rounded=1;whiteSpace=wrap;html=1;fillColor=#fad7ac;strokeColor=#b46504;" vertex="1" parent="1">
          <mxGeometry x="505" y="480" width="120" height="20" as="geometry" />
        </mxCell>
        <mxCell id="w0m_D-ADQ-zKJwWNaDBM-11" value="Customer" style="rounded=1;whiteSpace=wrap;html=1;fillColor=#fad7ac;strokeColor=#b46504;" vertex="1" parent="1">
          <mxGeometry x="210" y="450" width="120" height="20" as="geometry" />
        </mxCell>
      </root>
    </mxGraphModel>
  </diagram>
</mxfile>
